<svg id="visual" viewBox="0 0 900 600" width="900" height="600" xmlns="http://www.w3.org/2000/svg" xmlns:xlink="http://www.w3.org/1999/xlink" version="1.1"><rect x="0" y="0" width="900" height="600" fill="#111112"></rect><path d="M0 135L64 135L64 108L129 108L129 123L193 123L193 132L257 132L257 149L321 149L321 142L386 142L386 101L450 101L450 116L514 116L514 121L579 121L579 148L643 148L643 115L707 115L707 109L771 109L771 139L836 139L836 103L900 103L900 151L900 0L900 0L836 0L836 0L771 0L771 0L707 0L707 0L643 0L643 0L579 0L579 0L514 0L514 0L450 0L450 0L386 0L386 0L321 0L321 0L257 0L257 0L193 0L193 0L129 0L129 0L64 0L64 0L0 0Z" fill="#d8332c"></path><path d="M0 98L64 98L64 113L129 113L129 86L193 86L193 83L257 83L257 99L321 99L321 115L386 115L386 76L450 76L450 98L514 98L514 112L579 112L579 115L643 115L643 108L707 108L707 103L771 103L771 90L836 90L836 112L900 112L900 98L900 0L900 0L836 0L836 0L771 0L771 0L707 0L707 0L643 0L643 0L579 0L579 0L514 0L514 0L450 0L450 0L386 0L386 0L321 0L321 0L257 0L257 0L193 0L193 0L129 0L129 0L64 0L64 0L0 0Z" fill="#e5362f"></path><path d="M0 76L64 76L64 74L129 74L129 77L193 77L193 79L257 79L257 67L321 67L321 79L386 79L386 51L450 51L450 55L514 55L514 83L579 83L579 78L643 78L643 79L707 79L707 75L771 75L771 50L836 50L836 84L900 84L900 81L900 0L900 0L836 0L836 0L771 0L771 0L707 0L707 0L643 0L643 0L579 0L579 0L514 0L514 0L450 0L450 0L386 0L386 0L321 0L321 0L257 0L257 0L193 0L193 0L129 0L129 0L64 0L64 0L0 0Z" fill="#f23931"></path><path d="M0 28L64 28L64 43L129 43L129 37L193 37L193 21L257 21L257 51L321 51L321 38L386 38L386 49L450 49L450 42L514 42L514 41L579 41L579 19L643 19L643 34L707 34L707 45L771 45L771 43L836 43L836 24L900 24L900 52L900 0L900 0L836 0L836 0L771 0L771 0L707 0L707 0L643 0L643 0L579 0L579 0L514 0L514 0L450 0L450 0L386 0L386 0L321 0L321 0L257 0L257 0L193 0L193 0L129 0L129 0L64 0L64 0L0 0Z" fill="#ff3c33"></path></svg>