<svg id="visual" viewBox="0 0 900 600" width="900" height="600" xmlns="http://www.w3.org/2000/svg" xmlns:xlink="http://www.w3.org/1999/xlink" version="1.1"><rect x="0" y="0" width="900" height="600" fill="#111112"></rect><path d="M0 116L64 116L64 156L129 156L129 116L193 116L193 149L257 149L257 128L321 128L321 154L386 154L386 156L450 156L450 135L514 135L514 149L579 149L579 140L643 140L643 130L707 130L707 122L771 122L771 135L836 135L836 140L900 140L900 125L900 0L900 0L836 0L836 0L771 0L771 0L707 0L707 0L643 0L643 0L579 0L579 0L514 0L514 0L450 0L450 0L386 0L386 0L321 0L321 0L257 0L257 0L193 0L193 0L129 0L129 0L64 0L64 0L0 0Z" fill="#e6dfdf"></path><path d="M0 120L64 120L64 110L129 110L129 136L193 136L193 108L257 108L257 119L321 119L321 106L386 106L386 123L450 123L450 100L514 100L514 127L579 127L579 128L643 128L643 121L707 121L707 126L771 126L771 122L836 122L836 116L900 116L900 108L900 0L900 0L836 0L836 0L771 0L771 0L707 0L707 0L643 0L643 0L579 0L579 0L514 0L514 0L450 0L450 0L386 0L386 0L321 0L321 0L257 0L257 0L193 0L193 0L129 0L129 0L64 0L64 0L0 0Z" fill="#e0dada"></path><path d="M0 92L64 92L64 85L129 85L129 115L193 115L193 88L257 88L257 113L321 113L321 113L386 113L386 92L450 92L450 106L514 106L514 107L579 107L579 101L643 101L643 81L707 81L707 82L771 82L771 92L836 92L836 113L900 113L900 88L900 0L900 0L836 0L836 0L771 0L771 0L707 0L707 0L643 0L643 0L579 0L579 0L514 0L514 0L450 0L450 0L386 0L386 0L321 0L321 0L257 0L257 0L193 0L193 0L129 0L129 0L64 0L64 0L0 0Z" fill="#dbd4d4"></path><path d="M0 65L64 65L64 71L129 71L129 75L193 75L193 79L257 79L257 69L321 69L321 71L386 71L386 78L450 78L450 69L514 69L514 86L579 86L579 70L643 70L643 79L707 79L707 88L771 88L771 72L836 72L836 83L900 83L900 68L900 0L900 0L836 0L836 0L771 0L771 0L707 0L707 0L643 0L643 0L579 0L579 0L514 0L514 0L450 0L450 0L386 0L386 0L321 0L321 0L257 0L257 0L193 0L193 0L129 0L129 0L64 0L64 0L0 0Z" fill="#d5cfcf"></path><path d="M0 56L64 56L64 59L129 59L129 60L193 60L193 61L257 61L257 58L321 58L321 49L386 49L386 62L450 62L450 54L514 54L514 63L579 63L579 50L643 50L643 45L707 45L707 70L771 70L771 54L836 54L836 61L900 61L900 48L900 0L900 0L836 0L836 0L771 0L771 0L707 0L707 0L643 0L643 0L579 0L579 0L514 0L514 0L450 0L450 0L386 0L386 0L321 0L321 0L257 0L257 0L193 0L193 0L129 0L129 0L64 0L64 0L0 0Z" fill="#d0caca"></path><path d="M0 39L64 39L64 28L129 28L129 43L193 43L193 50L257 50L257 48L321 48L321 47L386 47L386 40L450 40L450 43L514 43L514 29L579 29L579 35L643 35L643 30L707 30L707 53L771 53L771 42L836 42L836 41L900 41L900 42L900 0L900 0L836 0L836 0L771 0L771 0L707 0L707 0L643 0L643 0L579 0L579 0L514 0L514 0L450 0L450 0L386 0L386 0L321 0L321 0L257 0L257 0L193 0L193 0L129 0L129 0L64 0L64 0L0 0Z" fill="#cac4c4"></path><path d="M0 14L64 14L64 12L129 12L129 29L193 29L193 19L257 19L257 14L321 14L321 29L386 29L386 25L450 25L450 30L514 30L514 10L579 10L579 21L643 21L643 25L707 25L707 32L771 32L771 15L836 15L836 22L900 22L900 33L900 0L900 0L836 0L836 0L771 0L771 0L707 0L707 0L643 0L643 0L579 0L579 0L514 0L514 0L450 0L450 0L386 0L386 0L321 0L321 0L257 0L257 0L193 0L193 0L129 0L129 0L64 0L64 0L0 0Z" fill="#c5bfbf"></path></svg>